<svg width="827" height="346" viewBox="0 0 827 346" fill="none" xmlns="http://www.w3.org/2000/svg">
<path fill-rule="evenodd" clip-rule="evenodd" d="M826.381 345.539L820.342 342.052C819.884 342.499 819.26 342.776 818.568 342.776C817.878 342.776 817.255 342.499 816.796 342.052L810.758 345.539H808.018L816.117 340.863C816.066 340.661 816.03 340.455 816.03 340.238C816.03 338.835 817.168 337.698 818.569 337.698C819.974 337.698 821.109 338.835 821.109 340.238C821.109 340.455 821.075 340.661 821.024 340.861L827 344.313V345.539H826.381ZM30.9644 345.539H28.2162L36.3181 340.86C36.2659 340.66 36.2315 340.453 36.2315 340.237C36.2315 339.073 37.0178 338.103 38.0859 337.802V286.388C37.664 286.27 37.2842 286.054 36.9822 285.755L12.7985 299.719L0 307.109V305.525L17.6735 295.32L36.3105 284.558C36.2633 284.364 36.2302 284.164 36.2302 283.955C36.2302 283.951 36.2315 283.947 36.2315 283.944C36.2315 283.94 36.2302 283.936 36.2302 283.931C36.2302 283.721 36.2621 283.522 36.3105 283.327L0 262.361V260.777L36.9847 282.127C37.2868 281.828 37.6678 281.614 38.0884 281.495V230.08C37.0204 229.779 36.234 228.809 36.234 227.645C36.234 227.429 36.2697 227.221 36.3207 227.021L0.0025476 206.05V204.466L37.0013 225.829C37.4588 225.383 38.0833 225.105 38.7728 225.105C39.4623 225.105 40.0868 225.383 40.5444 225.829L60.6891 214.198L85.0512 200.131C85.004 199.937 84.9709 199.736 84.9709 199.527C84.9709 199.525 84.9714 199.522 84.9717 199.52C84.972 199.518 84.9722 199.517 84.9722 199.515C84.9722 199.514 84.9719 199.512 84.9716 199.51C84.9713 199.508 84.9709 199.505 84.9709 199.503C84.9709 199.294 85.0028 199.095 85.0512 198.9L40.5457 173.202C40.0881 173.65 39.4623 173.927 38.7728 173.927C38.0833 173.927 37.4588 173.649 37.0013 173.203L9.66581 188.987L0.0012738 194.567V192.983V192.982L9.48228 187.507L36.3181 172.012C36.2659 171.811 36.2315 171.605 36.2315 171.388C36.2315 170.225 37.0178 169.254 38.0859 168.955V117.54C37.664 117.421 37.2829 117.207 36.9809 116.907L12.7985 130.871L0 138.26V136.676L17.6735 126.471L36.3105 115.709C36.2633 115.515 36.2302 115.314 36.2302 115.106C36.2302 115.103 36.2306 115.101 36.2309 115.099C36.2312 115.097 36.2315 115.095 36.2315 115.093C36.2315 115.092 36.2312 115.089 36.2308 115.087C36.2305 115.085 36.2302 115.083 36.2302 115.081C36.2302 114.872 36.2621 114.672 36.3105 114.477L0 93.51V91.9269V91.9256L36.9809 113.28C37.2829 112.98 37.664 112.766 38.0859 112.646V61.2324C37.0178 60.9316 36.2315 59.9615 36.2315 58.7978C36.2315 58.5811 36.2659 58.3746 36.3181 58.1745L0 37.2041V35.6198L36.9987 56.984C37.4563 56.5366 38.0808 56.26 38.7716 56.26C39.4623 56.26 40.0856 56.5378 40.5431 56.984L85.0487 31.286C85.0015 31.0922 84.9684 30.8909 84.9684 30.6818C84.9684 30.68 84.9686 30.6783 84.9689 30.6764C84.9693 30.6742 84.9696 30.6718 84.9696 30.6691C84.9696 30.6653 84.9684 30.6614 84.9684 30.6563C84.9684 30.4485 85.0002 30.2485 85.0487 30.0534L40.5457 4.35288C40.0881 4.80028 39.4636 5.07688 38.7728 5.07688C38.0821 5.07688 37.4576 4.79899 37 4.35414L0.0012738 25.7171V24.1327L36.3194 3.16361C36.2684 2.96222 36.2328 2.75574 36.2328 2.53905C36.2328 1.13568 37.3696 0 38.7728 0C40.1748 0 41.3116 1.13695 41.3116 2.53905C41.3116 2.75574 41.2772 2.96224 41.2262 3.16236L85.7203 28.854C86.1791 28.3989 86.8113 28.116 87.5097 28.116C88.9129 28.116 90.0498 29.2529 90.0498 30.655C90.0498 30.6601 90.0485 30.664 90.0485 30.6678C90.0485 30.6729 90.0498 30.6767 90.0498 30.6806C90.0498 30.8896 90.0179 31.0897 89.9695 31.2847L134.474 56.9827C134.931 56.5353 135.556 56.2587 136.247 56.2587C137.65 56.2587 138.787 57.3957 138.787 58.7978C138.787 59.9615 138 60.9315 136.934 61.2311V112.647C137.355 112.766 137.735 112.98 138.037 113.28L182.531 87.588C182.479 87.3879 182.445 87.1814 182.445 86.9647C182.445 85.5614 183.581 84.4244 184.983 84.4244C186.385 84.4244 187.524 85.5626 187.524 86.9647C187.524 87.1814 187.488 87.3892 187.437 87.5893L231.931 113.281C232.233 112.98 232.614 112.766 233.035 112.647V61.2311C231.968 60.9315 231.182 59.9615 231.182 58.7978C231.182 57.3944 232.318 56.2587 233.722 56.2587C234.412 56.2587 235.036 56.5366 235.493 56.9827L282.46 29.8648L329.424 56.984C329.881 56.5353 330.506 56.2587 331.197 56.2587C331.887 56.2587 332.511 56.5366 332.969 56.9814L379.936 29.8648L426.9 56.9827C427.358 56.5353 427.983 56.2587 428.673 56.2587C430.076 56.2587 431.213 57.3957 431.213 58.7978C431.213 59.9603 430.427 60.9303 429.361 61.2311V112.647C430.427 112.948 431.213 113.918 431.213 115.081C431.213 115.083 431.213 115.085 431.212 115.087C431.212 115.089 431.212 115.092 431.212 115.093C431.212 115.095 431.212 115.097 431.212 115.099C431.213 115.101 431.213 115.103 431.213 115.106C431.213 115.314 431.181 115.514 431.133 115.709L475.637 141.408C476.095 140.961 476.72 140.683 477.41 140.683C478.813 140.683 479.95 141.821 479.95 143.223C479.95 144.386 479.162 145.357 478.096 145.657V197.072C479.162 197.373 479.95 198.343 479.95 199.506C479.95 199.51 479.949 199.514 479.949 199.519C479.949 199.524 479.95 199.527 479.95 199.531C479.95 199.741 479.918 199.941 479.87 200.135L524.376 225.833C524.834 225.385 525.458 225.109 526.148 225.109C527.551 225.109 528.688 226.246 528.688 227.649C528.688 228.813 527.902 229.782 526.835 230.084V281.495C527.256 281.614 527.637 281.828 527.937 282.127L572.433 256.436C572.382 256.236 572.346 256.028 572.346 255.811C572.346 254.409 573.484 253.272 574.886 253.272C576.288 253.272 577.425 254.409 577.425 255.811C577.425 256.028 577.389 256.236 577.338 256.437L621.834 282.127C622.292 281.671 622.923 281.388 623.623 281.388C625.025 281.388 626.162 282.525 626.162 283.928C626.162 283.93 626.161 283.932 626.161 283.934C626.161 283.936 626.161 283.938 626.161 283.941C626.161 283.943 626.161 283.945 626.161 283.946C626.161 283.948 626.162 283.95 626.162 283.953C626.162 284.162 626.13 284.362 626.081 284.557L670.587 310.255C671.045 309.807 671.669 309.531 672.36 309.531C673.762 309.531 674.899 310.668 674.899 312.07C674.899 313.234 674.112 314.202 673.047 314.504V345.539H671.672V314.506C670.605 314.204 669.817 313.234 669.817 312.07C669.817 311.854 669.853 311.647 669.904 311.447L625.409 285.755C625.108 286.054 624.727 286.269 624.306 286.388V337.802C625.373 338.103 626.159 339.073 626.159 340.237C626.159 340.453 626.125 340.661 626.073 340.861L634.173 345.539H631.429L625.391 342.052C624.934 342.499 624.309 342.776 623.619 342.776C622.928 342.776 622.305 342.499 621.848 342.052L615.809 345.539H613.064L621.167 340.86C621.116 340.66 621.08 340.453 621.08 340.237C621.08 339.073 621.867 338.103 622.933 337.802V286.387C622.513 286.269 622.132 286.053 621.831 285.754L577.337 311.447C577.388 311.647 577.422 311.853 577.422 312.07C577.422 313.234 576.633 314.205 575.568 314.504V345.539H574.195V314.503C573.13 314.202 572.343 313.232 572.343 312.07C572.343 311.854 572.379 311.648 572.429 311.448L527.936 285.754C527.634 286.053 527.253 286.269 526.832 286.387V337.802C527.899 338.103 528.685 339.073 528.685 340.237C528.685 340.453 528.65 340.66 528.599 340.86L536.701 345.539H533.955L527.917 342.052C527.461 342.499 526.835 342.776 526.144 342.776C525.455 342.776 524.831 342.499 524.373 342.052L518.334 345.539H515.59L523.692 340.86C523.641 340.66 523.605 340.453 523.605 340.237C523.605 339.073 524.392 338.103 525.46 337.802V286.387C525.038 286.269 524.658 286.054 524.356 285.755L502.12 298.594L479.862 311.447C479.912 311.648 479.947 311.854 479.947 312.07C479.947 313.234 479.16 314.204 478.093 314.504V345.539H476.722V314.504C475.655 314.204 474.868 313.234 474.868 312.07C474.868 311.854 474.903 311.647 474.954 311.447L430.461 285.754C430.159 286.053 429.779 286.267 429.359 286.387V337.804C430.424 338.104 431.21 339.074 431.21 340.237C431.21 340.453 431.175 340.66 431.125 340.86L439.227 345.539H436.484L430.443 342.051C429.986 342.498 429.361 342.775 428.669 342.775C427.98 342.775 427.356 342.498 426.899 342.052L420.86 345.539H418.117L426.218 340.861C426.167 340.66 426.132 340.453 426.132 340.237C426.132 339.073 426.918 338.103 427.986 337.802V286.388C427.565 286.27 427.184 286.054 426.884 285.755L404.647 298.594L382.387 311.448C382.437 311.648 382.472 311.854 382.472 312.071C382.472 313.235 381.686 314.205 380.619 314.506V345.539H379.247V314.504C378.18 314.204 377.393 313.234 377.393 312.07C377.393 311.854 377.428 311.647 377.48 311.447L332.985 285.754C332.683 286.053 332.302 286.267 331.88 286.387V337.802C332.949 338.103 333.735 339.073 333.735 340.237C333.735 340.453 333.7 340.66 333.649 340.861L341.749 345.539H339.009L332.968 342.051C332.511 342.498 331.886 342.775 331.195 342.775C330.506 342.775 329.881 342.498 329.424 342.051L323.383 345.539H320.64L328.742 340.86C328.691 340.66 328.657 340.453 328.657 340.237C328.657 339.073 329.443 338.104 330.508 337.802V286.387C330.088 286.269 329.708 286.054 329.407 285.755L307.171 298.594L284.913 311.447C284.964 311.647 284.999 311.853 284.999 312.07C284.999 313.234 284.212 314.202 283.145 314.504V345.539H281.775V314.504C280.707 314.204 279.921 313.234 279.921 312.07C279.921 311.854 279.955 311.647 280.008 311.447L235.514 285.755C235.212 286.054 234.83 286.269 234.409 286.388V337.802C235.475 338.103 236.262 339.073 236.262 340.237C236.262 340.453 236.226 340.66 236.175 340.86L244.278 345.539H241.533L235.494 342.052C235.036 342.499 234.412 342.776 233.722 342.776C233.031 342.776 232.408 342.499 231.95 342.052L225.911 345.539H223.167L231.268 340.86C231.217 340.66 231.183 340.453 231.183 340.237C231.183 339.073 231.969 338.103 233.036 337.802V286.387C232.615 286.269 232.236 286.054 231.933 285.754L209.696 298.593L187.438 311.445C187.489 311.645 187.525 311.852 187.525 312.069C187.525 313.232 186.737 314.202 185.67 314.503V345.539H184.298V314.504C183.231 314.204 182.445 313.234 182.445 312.07C182.445 311.854 182.479 311.647 182.53 311.447L138.037 285.754C137.735 286.053 137.354 286.269 136.934 286.387V337.802C138 338.103 138.787 339.073 138.787 340.237C138.787 340.453 138.751 340.66 138.7 340.86L146.802 345.539H144.057L138.019 342.052C137.562 342.499 136.937 342.776 136.247 342.776C135.557 342.776 134.934 342.499 134.475 342.052L128.436 345.539H125.692L133.794 340.86C133.743 340.66 133.708 340.453 133.708 340.237C133.708 339.073 134.495 338.103 135.562 337.802V286.387C135.14 286.269 134.761 286.054 134.458 285.755L112.222 298.594L89.9631 311.447C90.0141 311.648 90.0498 311.854 90.0498 312.07C90.0498 313.234 89.2634 314.204 88.1954 314.504V345.539H86.824V314.504C85.7585 314.204 84.9709 313.234 84.9709 312.07C84.9709 311.854 85.0053 311.647 85.0563 311.447L40.5635 285.754C40.2627 286.053 39.8816 286.267 39.4598 286.387V337.804C40.5265 338.104 41.3129 339.074 41.3129 340.237C41.3129 340.453 41.2785 340.66 41.2275 340.86L49.3297 345.539H46.5841L40.5457 342.052C40.0881 342.499 39.4636 342.776 38.7728 342.776C38.0821 342.776 37.4588 342.499 37.0013 342.053L30.9644 345.539ZM710.541 345.539H713.282L719.32 342.052C719.779 342.498 720.403 342.776 721.094 342.776C721.784 342.776 722.407 342.499 722.866 342.053L728.902 345.539H731.649L723.549 340.861C723.6 340.661 723.635 340.453 723.635 340.237C723.635 338.833 722.499 337.696 721.097 337.696C719.695 337.696 718.557 338.833 718.557 340.237C718.557 340.453 718.592 340.66 718.643 340.86L710.541 345.539ZM573.109 257.627C573.568 258.074 574.191 258.351 574.882 258.351C575.572 258.351 576.196 258.075 576.655 257.629L621.161 283.327C621.112 283.52 621.08 283.721 621.08 283.93L621.081 283.933C621.081 283.936 621.082 283.939 621.082 283.942C621.082 283.944 621.081 283.946 621.081 283.948C621.081 283.95 621.08 283.952 621.08 283.954C621.08 284.163 621.112 284.363 621.161 284.558L576.654 310.255C576.195 309.809 575.572 309.532 574.882 309.532C574.191 309.532 573.566 309.809 573.108 310.256L528.604 284.558C528.652 284.363 528.684 284.163 528.684 283.954C528.684 283.952 528.684 283.95 528.683 283.948C528.683 283.947 528.683 283.945 528.683 283.942C528.683 283.937 528.684 283.933 528.684 283.93C528.684 283.721 528.651 283.52 528.604 283.327L573.109 257.627ZM523.692 227.021C523.641 227.221 523.605 227.429 523.605 227.645C523.605 228.809 524.392 229.779 525.46 230.079V281.494C525.038 281.612 524.657 281.828 524.356 282.127L479.862 256.436C479.912 256.236 479.947 256.028 479.947 255.811C479.947 254.649 479.16 253.677 478.093 253.377V201.963C478.515 201.843 478.896 201.629 479.197 201.329L523.692 227.021ZM474.955 142.599C474.903 142.799 474.868 143.006 474.868 143.222C474.868 144.385 475.655 145.353 476.722 145.654V197.069C476.3 197.189 475.919 197.403 475.618 197.703L431.125 172.01C431.175 171.81 431.21 171.603 431.21 171.387C431.21 170.224 430.424 169.254 429.359 168.953V117.538C429.779 117.418 430.16 117.204 430.461 116.905L474.955 142.599ZM379.934 89.5026C380.623 89.5026 381.248 89.226 381.705 88.7786L426.211 114.478C426.162 114.672 426.13 114.872 426.13 115.081C426.13 115.083 426.131 115.085 426.131 115.087C426.131 115.089 426.132 115.092 426.132 115.093C426.132 115.097 426.13 115.101 426.13 115.106C426.13 115.314 426.163 115.515 426.211 115.709L403.395 128.884L381.705 141.407C381.246 140.961 380.623 140.683 379.934 140.683C379.243 140.683 378.617 140.961 378.161 141.407L333.655 115.709C333.704 115.514 333.735 115.314 333.735 115.106C333.735 115.101 333.734 115.097 333.734 115.093C333.734 115.09 333.735 115.085 333.735 115.081C333.735 114.872 333.704 114.672 333.655 114.478L378.161 88.7786C378.62 89.2247 379.243 89.5026 379.934 89.5026ZM282.46 89.5026C283.149 89.5026 283.774 89.226 284.231 88.7786L328.736 114.479C328.687 114.673 328.655 114.873 328.655 115.081C328.655 115.085 328.657 115.09 328.657 115.093C328.657 115.096 328.656 115.099 328.655 115.102C328.655 115.104 328.655 115.105 328.655 115.106C328.655 115.314 328.688 115.514 328.736 115.708L306.484 128.558L284.231 141.407C283.774 140.961 283.151 140.683 282.46 140.683C281.769 140.683 281.146 140.96 280.687 141.407L236.183 115.709C236.23 115.514 236.263 115.314 236.263 115.106C236.263 115.104 236.263 115.102 236.262 115.1C236.262 115.097 236.262 115.095 236.262 115.093C236.262 115.09 236.263 115.085 236.263 115.081C236.263 114.873 236.23 114.672 236.183 114.478L280.688 88.7799C281.146 89.2247 281.77 89.5026 282.46 89.5026ZM183.213 88.7786C183.671 89.2247 184.295 89.5026 184.985 89.5026C185.674 89.5026 186.299 89.2247 186.759 88.7799L231.264 114.478C231.216 114.673 231.184 114.873 231.184 115.081C231.184 115.085 231.185 115.09 231.185 115.093C231.185 115.097 231.184 115.101 231.184 115.106C231.184 115.314 231.217 115.515 231.264 115.709L186.758 141.407C186.3 140.961 185.677 140.683 184.986 140.683C184.295 140.683 183.671 140.961 183.213 141.408L138.708 115.709C138.756 115.514 138.788 115.314 138.788 115.106C138.788 115.101 138.787 115.097 138.787 115.093C138.787 115.092 138.787 115.089 138.787 115.087C138.788 115.085 138.788 115.083 138.788 115.081C138.788 114.873 138.756 114.672 138.708 114.478L183.213 88.7786ZM133.794 58.1732C133.743 58.3733 133.708 58.5798 133.708 58.7965C133.708 59.9603 134.494 60.9303 135.563 61.2311V112.646C135.142 112.765 134.761 112.979 134.458 113.278L89.9644 87.5868C90.0154 87.3867 90.0511 87.1802 90.0511 86.9635C90.0511 85.7997 89.2634 84.8297 88.1967 84.5289V33.1138C88.6173 32.9953 88.9983 32.7812 89.3004 32.4816L133.794 58.1732ZM39.4598 112.646V61.2298C40.5265 60.929 41.3129 59.959 41.3116 58.7965C41.3116 58.5811 41.2772 58.3746 41.2262 58.1745L85.7216 32.4803C86.0236 32.7799 86.4034 32.994 86.824 33.1125V84.5289C85.7573 84.8284 84.9709 85.7984 84.9709 86.9622C84.9709 87.1776 85.0053 87.3841 85.0563 87.5855L56.9765 103.8L40.5622 113.278C40.2615 112.98 39.8804 112.765 39.4598 112.646ZM41.3116 227.645C41.3116 227.43 41.2772 227.223 41.2262 227.022L71.9736 209.269L85.7203 201.332C86.0224 201.631 86.4022 201.845 86.8228 201.964V253.379C85.756 253.68 84.9696 254.65 84.9696 255.812C84.9696 256.029 85.004 256.236 85.055 256.437L56.0334 273.195L40.561 282.127C40.2589 281.829 39.8791 281.614 39.4585 281.495V230.079C40.5253 229.778 41.3116 228.808 41.3116 227.645ZM87.5097 89.5026C88.2005 89.5026 88.8237 89.226 89.2825 88.7786L133.786 114.478C133.738 114.673 133.705 114.872 133.705 115.081C133.705 115.083 133.706 115.085 133.706 115.087C133.706 115.089 133.706 115.092 133.706 115.093C133.706 115.095 133.706 115.097 133.706 115.099C133.706 115.101 133.705 115.103 133.705 115.106C133.705 115.314 133.738 115.515 133.786 115.709L111.534 128.558L89.28 141.407C88.8224 140.961 88.1992 140.683 87.5084 140.683C86.8189 140.683 86.1944 140.961 85.7369 141.408L41.2313 115.708C41.2798 115.513 41.3116 115.314 41.3116 115.106C41.3116 115.101 41.3104 115.097 41.3104 115.093C41.3104 115.09 41.3116 115.085 41.3116 115.081C41.3116 114.873 41.2798 114.672 41.2313 114.479L71.7556 96.8521L85.7382 88.7786C86.197 89.2247 86.8202 89.5026 87.5097 89.5026ZM474.868 255.811C474.868 256.028 474.903 256.234 474.955 256.436L457.052 266.773L430.459 282.127C430.158 281.829 429.777 281.614 429.357 281.495V230.079C430.423 229.778 431.209 228.808 431.209 227.645C431.209 227.43 431.173 227.223 431.124 227.022L448.616 216.922L475.619 201.33C475.92 201.63 476.3 201.844 476.722 201.963V253.378C475.655 253.679 474.868 254.649 474.868 255.811ZM377.48 142.599C377.428 142.799 377.393 143.006 377.393 143.222C377.393 144.385 378.181 145.355 379.247 145.656V197.071C378.826 197.189 378.445 197.405 378.143 197.704L333.649 172.012C333.7 171.811 333.735 171.605 333.735 171.388C333.735 170.225 332.948 169.254 331.88 168.955V117.54C332.302 117.421 332.684 117.207 332.985 116.906L377.48 142.599ZM280.006 142.599C279.955 142.799 279.92 143.006 279.92 143.222C279.92 144.386 280.706 145.355 281.774 145.656V197.071C281.352 197.189 280.971 197.405 280.67 197.704L236.175 172.011C236.226 171.811 236.262 171.605 236.262 171.388C236.262 170.225 235.475 169.255 234.407 168.955V117.54C234.829 117.421 235.21 117.206 235.512 116.906L280.006 142.599ZM231.269 227.021C231.218 227.222 231.183 227.429 231.183 227.645C231.183 228.809 231.968 229.779 233.036 230.079V281.494C232.615 281.614 232.234 281.828 231.933 282.127L187.438 256.436C187.489 256.236 187.525 256.028 187.525 255.811C187.525 254.647 186.737 253.677 185.67 253.377V201.963C186.091 201.843 186.472 201.629 186.774 201.329L231.269 227.021ZM182.445 255.811C182.445 256.028 182.479 256.234 182.531 256.436L164.046 267.109L138.036 282.127C137.734 281.828 137.355 281.614 136.934 281.495V230.08C138 229.778 138.787 228.809 138.787 227.645C138.787 227.429 138.751 227.222 138.7 227.022L156.177 216.931L183.195 201.33C183.497 201.63 183.877 201.844 184.298 201.963V253.378C183.23 253.679 182.445 254.649 182.445 255.811ZM89.9631 256.437C90.0141 256.237 90.0498 256.029 90.0498 255.812C90.0498 254.649 89.2634 253.679 88.1967 253.377V201.961C88.6173 201.843 88.9983 201.629 89.3004 201.329L133.794 227.021C133.743 227.221 133.708 227.429 133.708 227.645C133.708 228.809 134.495 229.779 135.562 230.08V281.495C135.14 281.614 134.759 281.828 134.458 282.127L89.9631 256.437ZM90.0498 199.505C90.0498 199.296 90.0166 199.096 89.9695 198.902L115.983 183.881L134.474 173.204C134.931 173.65 135.556 173.928 136.245 173.928C136.936 173.928 137.561 173.652 138.018 173.203L182.524 198.904C182.475 199.097 182.443 199.296 182.443 199.505V199.518V199.529C182.443 199.738 182.475 199.939 182.524 200.132L160.272 212.982L138.018 225.832C137.561 225.385 136.937 225.108 136.247 225.108C135.557 225.108 134.933 225.384 134.475 225.832L89.9695 200.134C90.0179 199.939 90.0498 199.738 90.0498 199.529C90.0498 199.528 90.0495 199.526 90.0492 199.525C90.0489 199.523 90.0485 199.521 90.0485 199.518C90.0485 199.515 90.0489 199.513 90.0492 199.511C90.0495 199.509 90.0498 199.507 90.0498 199.505ZM236.262 227.647C236.262 227.43 236.226 227.223 236.175 227.022L253.527 217.003L280.67 201.332C280.972 201.631 281.353 201.845 281.774 201.964V253.378C280.706 253.679 279.92 254.649 279.92 255.812C279.92 256.029 279.955 256.237 280.006 256.437L261.625 267.05L235.51 282.127C235.209 281.828 234.828 281.614 234.407 281.495V230.081C235.475 229.779 236.262 228.81 236.262 227.647ZM328.742 227.022C328.692 227.222 328.657 227.429 328.657 227.645C328.657 228.809 329.443 229.779 330.508 230.08V281.496C330.088 281.615 329.708 281.829 329.406 282.129L284.913 256.436C284.964 256.234 284.999 256.028 284.999 255.811C284.999 254.649 284.212 253.679 283.145 253.378V201.963C283.566 201.843 283.947 201.629 284.248 201.329L328.742 227.022ZM333.735 227.647C333.735 227.43 333.7 227.222 333.649 227.022L351 217.002L378.144 201.33C378.446 201.63 378.826 201.844 379.247 201.963V253.378C378.18 253.679 377.393 254.649 377.393 255.811C377.393 256.028 377.429 256.236 377.48 256.436L359.098 267.05L332.983 282.127C332.681 281.828 332.302 281.614 331.88 281.495V230.081C332.948 229.78 333.735 228.81 333.735 227.647ZM426.218 227.021C426.167 227.221 426.132 227.429 426.132 227.645C426.132 228.809 426.918 229.779 427.986 230.08V281.495C427.565 281.614 427.184 281.828 426.882 282.127L382.387 256.436C382.438 256.236 382.474 256.028 382.474 255.811C382.474 254.649 381.687 253.679 380.62 253.378V201.963C381.041 201.843 381.422 201.629 381.723 201.329L426.218 227.021ZM426.13 283.954C426.13 284.163 426.163 284.363 426.211 284.557L403.395 297.733L381.705 310.256C381.246 309.809 380.623 309.532 379.934 309.532C379.243 309.532 378.617 309.809 378.159 310.256L333.655 284.557C333.704 284.363 333.735 284.163 333.735 283.954C333.735 283.952 333.735 283.951 333.735 283.949C333.735 283.947 333.734 283.945 333.734 283.942C333.734 283.94 333.735 283.937 333.735 283.935C333.735 283.933 333.735 283.931 333.735 283.93C333.735 283.719 333.704 283.52 333.655 283.325L359.785 268.239L378.161 257.629C378.62 258.076 379.243 258.353 379.934 258.353C380.623 258.353 381.248 258.076 381.705 257.629L426.211 283.325C426.162 283.52 426.13 283.719 426.13 283.93C426.13 283.932 426.131 283.935 426.131 283.937C426.131 283.939 426.132 283.941 426.132 283.942C426.132 283.944 426.131 283.946 426.131 283.948C426.131 283.95 426.13 283.952 426.13 283.954ZM328.657 283.953C328.657 284.162 328.69 284.362 328.737 284.555L306.485 297.405L284.233 310.255C283.775 309.807 283.152 309.531 282.461 309.531C281.77 309.531 281.146 309.807 280.688 310.255L236.183 284.555C236.23 284.362 236.263 284.162 236.263 283.953C236.263 283.951 236.263 283.949 236.262 283.948C236.262 283.946 236.262 283.944 236.262 283.941C236.262 283.936 236.263 283.932 236.263 283.928C236.263 283.719 236.23 283.519 236.183 283.325L262.312 268.238L280.688 257.627C281.147 258.074 281.77 258.35 282.46 258.35C283.149 258.35 283.774 258.074 284.231 257.626L328.737 283.325C328.688 283.519 328.657 283.719 328.657 283.928C328.657 283.933 328.658 283.937 328.658 283.941C328.658 283.943 328.658 283.945 328.657 283.947C328.657 283.949 328.657 283.951 328.657 283.953ZM231.182 283.953C231.182 284.162 231.215 284.362 231.262 284.555L209.009 297.405L186.755 310.253C186.297 309.807 185.674 309.531 184.983 309.531C184.293 309.531 183.668 309.807 183.211 310.255L138.706 284.555C138.755 284.36 138.787 284.162 138.787 283.953C138.787 283.951 138.786 283.949 138.786 283.948C138.786 283.946 138.785 283.944 138.785 283.941C138.785 283.938 138.786 283.936 138.786 283.933C138.786 283.932 138.787 283.93 138.787 283.928C138.787 283.719 138.755 283.519 138.706 283.325L164.733 268.297L183.213 257.627C183.672 258.075 184.295 258.351 184.985 258.351C185.674 258.351 186.299 258.075 186.756 257.627L231.262 283.325C231.213 283.519 231.182 283.719 231.182 283.928C231.182 283.933 231.183 283.937 231.183 283.941C231.183 283.945 231.182 283.949 231.182 283.953ZM90.0498 143.221C90.0498 143.004 90.0141 142.798 89.9631 142.598L107.453 132.497L134.458 116.906C134.761 117.206 135.14 117.42 135.562 117.538V168.953C134.495 169.254 133.708 170.224 133.708 171.387C133.708 171.603 133.743 171.81 133.794 172.011L115.3 182.69L89.2991 197.703C88.997 197.402 88.6172 197.188 88.1954 197.069V145.654C89.2634 145.355 90.0498 144.383 90.0498 143.221ZM187.525 199.504C187.525 199.296 187.493 199.095 187.445 198.901L213.46 183.879L231.95 173.203C232.408 173.649 233.031 173.927 233.722 173.927C234.412 173.927 235.036 173.65 235.494 173.203L279.999 198.901C279.95 199.095 279.918 199.295 279.918 199.504C279.918 199.509 279.92 199.513 279.92 199.517C279.92 199.52 279.918 199.524 279.918 199.528C279.918 199.737 279.952 199.937 279.999 200.132L257.747 212.981L235.492 225.83C235.034 225.384 234.411 225.106 233.722 225.106C233.031 225.106 232.408 225.383 231.95 225.83L187.445 200.132C187.493 199.937 187.525 199.737 187.525 199.528V199.517V199.504ZM284.999 199.504C284.999 199.296 284.967 199.096 284.92 198.902L310.836 183.935L329.424 173.202C329.881 173.648 330.506 173.926 331.195 173.926C331.886 173.926 332.511 173.649 332.968 173.202L377.474 198.901C377.425 199.096 377.393 199.295 377.393 199.504C377.393 199.507 377.394 199.509 377.394 199.511C377.394 199.513 377.395 199.515 377.395 199.517C377.395 199.519 377.394 199.52 377.394 199.522C377.394 199.524 377.393 199.526 377.393 199.528C377.393 199.737 377.427 199.939 377.474 200.132L355.221 212.981L332.967 225.829C332.508 225.384 331.886 225.106 331.195 225.106C330.506 225.106 329.88 225.383 329.424 225.83L284.918 200.131C284.967 199.937 284.999 199.737 284.999 199.528V199.517V199.504ZM41.3129 283.93C41.3129 283.721 41.2798 283.52 41.2326 283.327L71.0534 266.106L85.7382 257.627C86.197 258.075 86.8202 258.351 87.5097 258.351C88.1992 258.351 88.8237 258.075 89.2813 257.627L133.787 283.325C133.74 283.52 133.706 283.721 133.706 283.93C133.706 283.935 133.708 283.939 133.708 283.942C133.708 283.946 133.706 283.95 133.706 283.954C133.706 284.163 133.74 284.363 133.787 284.557L111.535 297.406L89.2813 310.256C88.8237 309.809 88.1992 309.532 87.5097 309.532C86.8202 309.532 86.1957 309.809 85.7382 310.256L41.2326 284.557C41.2811 284.362 41.3129 284.163 41.3129 283.954C41.3129 283.952 41.3126 283.951 41.3123 283.949C41.312 283.947 41.3116 283.945 41.3116 283.942C41.3116 283.939 41.3123 283.936 41.3126 283.933C41.3128 283.932 41.3129 283.931 41.3129 283.93ZM136.934 117.538C137.355 117.418 137.736 117.204 138.037 116.905L182.53 142.598C182.479 142.798 182.445 143.004 182.445 143.221C182.445 144.383 183.231 145.353 184.298 145.654V197.071C183.876 197.189 183.495 197.403 183.194 197.703L138.7 172.01C138.751 171.81 138.787 171.603 138.787 171.387C138.787 170.224 138 169.254 136.934 168.953V117.538ZM185.67 197.071V145.657C186.737 145.355 187.524 144.386 187.525 143.222C187.525 143.006 187.489 142.799 187.438 142.598L231.932 116.906C232.234 117.206 232.614 117.421 233.036 117.54V168.955C231.969 169.255 231.183 170.225 231.183 171.388C231.183 171.605 231.217 171.811 231.268 172.011L212.774 182.691L186.774 197.703C186.472 197.403 186.091 197.189 185.67 197.071ZM284.997 143.221C284.997 143.004 284.963 142.798 284.912 142.598L302.518 132.431L329.405 116.905C329.707 117.204 330.087 117.418 330.507 117.538V168.953C329.442 169.254 328.655 170.224 328.655 171.387C328.655 171.603 328.69 171.81 328.741 172.01L310.148 182.746L284.247 197.703C283.945 197.403 283.565 197.189 283.144 197.071V145.654C284.211 145.353 284.997 144.383 284.997 143.221ZM382.472 143.221C382.472 143.004 382.437 142.798 382.387 142.598L399.862 132.508L426.882 116.906C427.184 117.206 427.565 117.42 427.986 117.538V168.953C426.918 169.253 426.132 170.224 426.132 171.387C426.132 171.603 426.166 171.81 426.218 172.011L406.92 183.154L381.722 197.703C381.421 197.403 381.04 197.188 380.619 197.069V145.654C381.686 145.355 382.472 144.383 382.472 143.221ZM428.669 173.927C429.361 173.927 429.986 173.65 430.443 173.202L474.947 198.902C474.899 199.097 474.867 199.296 474.867 199.505C474.867 199.51 474.87 199.514 474.87 199.518C474.87 199.522 474.867 199.526 474.867 199.529C474.867 199.738 474.9 199.94 474.947 200.134L453.259 212.657L430.442 225.832C429.983 225.385 429.36 225.108 428.669 225.108C427.98 225.108 427.355 225.385 426.898 225.832L382.392 200.134C382.44 199.939 382.472 199.738 382.472 199.529C382.472 199.528 382.472 199.526 382.472 199.525C382.471 199.523 382.471 199.521 382.471 199.518C382.471 199.513 382.472 199.509 382.472 199.505C382.472 199.296 382.439 199.096 382.392 198.902L408.421 183.872L426.898 173.203C427.356 173.649 427.98 173.927 428.669 173.927ZM477.407 258.351C478.098 258.351 478.723 258.075 479.18 257.627L523.686 283.324C523.637 283.519 523.605 283.719 523.605 283.928C523.605 283.933 523.607 283.937 523.607 283.941C523.607 283.945 523.605 283.949 523.605 283.953C523.605 284.162 523.638 284.362 523.686 284.555L501.434 297.405L479.18 310.255C478.721 309.807 478.098 309.531 477.407 309.531C476.718 309.531 476.092 309.807 475.634 310.255L431.13 284.555C431.179 284.36 431.21 284.162 431.21 283.953C431.21 283.951 431.21 283.949 431.21 283.948C431.21 283.946 431.209 283.944 431.209 283.941C431.209 283.936 431.21 283.932 431.21 283.928C431.21 283.719 431.177 283.519 431.13 283.325L457.143 268.305L475.636 257.627C476.094 258.075 476.718 258.351 477.407 258.351ZM41.2275 172.01C41.2785 171.81 41.3129 171.603 41.3129 171.387C41.3129 170.224 40.5265 169.254 39.4598 168.953V117.538C39.8804 117.418 40.2615 117.204 40.5635 116.905L85.0563 142.598C85.0053 142.798 84.9709 143.004 84.9709 143.221C84.9709 144.383 85.7585 145.353 86.824 145.654V197.069C86.4034 197.189 86.0224 197.403 85.7216 197.703L41.2275 172.01ZM236.262 58.7965C236.262 58.5798 236.226 58.3733 236.175 58.1732L282.461 31.4479L328.743 58.1745C328.692 58.3746 328.658 58.5811 328.658 58.7965C328.658 59.959 329.444 60.929 330.51 61.2298V112.646C330.089 112.765 329.708 112.98 329.406 113.28L284.913 87.5868C284.964 87.3867 284.999 87.1802 284.999 86.9635C284.999 85.5614 283.862 84.4231 282.46 84.4231C281.057 84.4231 279.92 85.5601 279.92 86.9635C279.92 87.1802 279.954 87.3867 280.006 87.588L235.511 113.278C235.209 112.979 234.829 112.765 234.407 112.646V61.2311C235.475 60.9303 236.262 59.9603 236.262 58.7965ZM333.735 58.7965C333.735 58.5798 333.7 58.3733 333.649 58.1732L379.934 31.4479L426.217 58.1732C426.165 58.3733 426.13 58.5798 426.13 58.7965C426.13 59.9603 426.917 60.9303 427.985 61.2311V112.645C427.564 112.765 427.183 112.979 426.88 113.278L382.386 87.5868C382.437 87.3867 382.472 87.1802 382.472 86.9635C382.472 85.5614 381.335 84.4231 379.934 84.4231C378.532 84.4231 377.393 85.5601 377.393 86.9635C377.393 87.1802 377.429 87.3867 377.48 87.5868L332.985 113.278C332.683 112.979 332.302 112.765 331.88 112.645V61.2311C332.948 60.9303 333.735 59.9603 333.735 58.7965Z" fill="#D1D2D5" fill-opacity="0.15"/>
</svg>
